<?xml version="1.0" standalone="no"?>
<!DOCTYPE svg PUBLIC "-//W3C//DTD SVG 20010904//EN"
 "http://www.w3.org/TR/2001/REC-SVG-20010904/DTD/svg10.dtd">
<svg version="1.0" xmlns="http://www.w3.org/2000/svg"
 width="500.000000pt" height="500.000000pt" viewBox="0 0 500.000000 500.000000"
 preserveAspectRatio="xMidYMid meet">

<g transform="translate(0.000000,500.000000) scale(0.100000,-0.100000)"
fill="#000000" stroke="none">
<path d="M2511 4992 l-144 -3 8 -247 c4 -136 9 -249 10 -251 2 -2 69 0 149 4
l146 7 0 25 0 25 -117 -3 -118 -4 -3 88 -3 87 101 0 100 0 0 25 0 25 -105 0
-105 0 0 85 0 84 117 3 c106 3 118 5 121 22 2 10 0 21 -5 25 -4 3 -73 5 -152
3z"/>
<path d="M2132 4961 c-11 -6 -5 -54 30 -247 44 -239 44 -239 68 -236 14 2 27
6 29 8 3 2 -14 109 -37 237 -23 127 -42 235 -42 240 0 10 -32 9 -48 -2z"/>
<path d="M2835 4958 c-8 -27 -68 -468 -64 -472 2 -3 60 -12 127 -22 106 -15
125 -15 133 -3 19 30 8 37 -78 49 -49 6 -95 14 -104 16 -14 4 -12 25 12 192
36 242 36 252 4 252 -14 0 -27 -6 -30 -12z"/>
<path d="M1939 4923 c-13 -3 -17 -26 -22 -125 -4 -67 -8 -155 -8 -197 -3 -152
4 -154 -152 43 -137 175 -137 175 -167 164 -29 -10 -30 -10 -12 -32 9 -12 84
-106 165 -209 82 -103 150 -187 151 -187 2 0 17 5 33 10 l30 11 7 152 c3 84 9
203 13 265 6 118 6 117 -38 105z"/>
<path d="M3213 4638 l-171 -203 30 -9 c33 -10 28 -14 101 73 l28 33 97 -35 97
-35 3 -80 c3 -77 4 -80 29 -87 14 -3 27 -4 30 -1 3 2 1 122 -3 266 l-7 262
-24 9 c-13 5 -28 9 -31 9 -4 0 -85 -91 -179 -202z m187 -4 c0 -132 12 -123
-103 -79 l-58 22 72 86 c41 48 77 87 81 87 4 0 8 -52 8 -116z"/>
<path d="M1255 4646 c-63 -29 -120 -92 -135 -147 -22 -79 8 -178 77 -258 48
-57 104 -84 174 -84 99 0 206 77 230 168 31 112 -43 264 -153 319 -66 33 -126
34 -193 2z m170 -59 c75 -42 133 -159 120 -238 -12 -68 -94 -139 -160 -139
-137 0 -258 203 -190 318 45 77 151 104 230 59z"/>
<path d="M3631 4463 l-124 -206 23 -19 c18 -15 25 -16 31 -6 5 7 50 82 101
166 l93 152 7 -227 c7 -217 8 -229 29 -245 12 -10 25 -18 29 -18 8 0 264 419
259 424 -2 2 -14 9 -26 15 -21 10 -25 8 -43 -21 -11 -18 -55 -90 -98 -160 -42
-71 -80 -128 -84 -128 -5 0 -8 101 -8 224 0 221 0 225 -22 240 -12 9 -27 16
-33 16 -5 0 -66 -93 -134 -207z"/>
<path d="M843 4358 l-21 -23 28 -135 c16 -74 28 -135 27 -136 -1 -1 -63 6
-137 16 -134 17 -135 17 -157 -3 -13 -11 -23 -24 -23 -27 0 -4 80 -82 179
-173 l179 -166 21 23 21 22 -145 134 c-80 73 -143 135 -141 137 2 2 58 -4 125
-13 90 -12 125 -13 135 -5 11 9 10 29 -10 119 -13 59 -24 115 -24 125 0 21 23
2 194 -157 94 -87 97 -88 116 -71 11 10 19 22 18 26 -4 11 -350 329 -358 329
-4 0 -16 -10 -27 -22z"/>
<path d="M4070 4155 l-175 -175 75 -75 c123 -124 205 -150 308 -99 96 48 166
150 165 241 0 67 -30 116 -125 210 l-73 73 -175 -175z m244 33 c65 -71 84
-122 67 -178 -23 -76 -132 -170 -198 -170 -52 0 -93 23 -153 84 l-55 56 135
135 c74 74 138 135 142 135 3 0 31 -28 62 -62z"/>
<path d="M1330 2670 l0 -660 174 0 175 0 -15 35 c-36 86 -4 194 74 249 83 59
211 42 276 -35 32 -37 38 -37 24 2 -15 43 -4 137 20 186 23 43 73 92 125 120
48 26 169 24 223 -4 45 -24 108 -89 119 -122 5 -18 9 -19 28 -9 51 27 133 28
200 2 14 -5 17 0 17 23 0 87 79 201 167 244 67 32 169 32 238 1 164 -75 225
-283 124 -422 -16 -22 -29 -42 -29 -46 0 -3 22 -26 48 -52 27 -26 64 -74 83
-107 l35 -60 115 0 114 0 3 658 2 657 -1170 0 -1170 0 0 -660z m2230 5 l0
-545 -28 0 c-23 0 -36 11 -71 61 l-43 61 17 42 c9 22 19 75 22 116 13 172 -74
317 -236 394 -60 28 -75 31 -161 31 -75 -1 -107 -5 -153 -24 -73 -29 -165
-113 -203 -185 -27 -51 -30 -54 -73 -59 -43 -5 -49 -2 -89 35 -24 22 -69 52
-100 66 -49 23 -70 27 -152 27 -88 0 -101 -3 -162 -33 -77 -38 -146 -108 -174
-177 l-19 -45 -72 0 c-48 0 -90 -7 -127 -21 -99 -36 -182 -142 -194 -245 l-5
-44 -48 0 -49 0 0 545 0 545 1060 0 1060 0 0 -545z"/>
<path d="M2970 2608 c-26 -14 -57 -41 -75 -66 -25 -37 -30 -53 -30 -105 0 -72
20 -114 78 -160 31 -26 49 -32 101 -35 105 -7 183 49 205 148 36 163 -131 293
-279 218z"/>
<path d="M175 2591 c-146 -66 -151 -273 -8 -342 95 -46 211 -8 257 85 35 70
16 177 -41 228 -53 48 -140 60 -208 29z"/>
<path d="M4664 2591 c-142 -65 -141 -278 1 -346 72 -34 187 -8 231 52 46 63
55 133 25 198 -46 99 -158 141 -257 96z"/>
<path d="M2205 2466 c-53 -32 -79 -78 -79 -141 0 -98 56 -157 157 -163 52 -3
67 0 97 20 40 27 80 98 80 144 0 17 -10 51 -23 75 -45 85 -150 114 -232 65z"/>
<path d="M2590 2342 c-23 -12 -43 -35 -59 -65 -29 -59 -23 -104 23 -154 27
-29 41 -36 82 -40 89 -9 155 47 156 131 2 109 -106 178 -202 128z"/>
<path d="M1792 2214 c-27 -19 -52 -65 -52 -97 0 -37 41 -91 80 -103 73 -24
150 31 150 107 0 33 -6 47 -34 75 -28 28 -41 34 -78 34 -24 0 -54 -7 -66 -16z"/>
<path d="M2980 2181 c-64 -20 -155 -96 -188 -158 -12 -21 -12 -21 -49 -2 -54
27 -129 25 -187 -6 l-47 -25 -30 35 c-64 72 -151 103 -239 84 -45 -10 -52 -9
-76 10 -37 29 -88 27 -119 -3 -37 -37 -42 -73 -16 -122 24 -44 22 -72 -5 -95
-12 -10 -20 -7 -47 18 -44 42 -72 55 -122 55 -104 0 -185 -98 -185 -224 0 -84
-67 -78 836 -78 878 0 826 -4 859 60 19 36 19 119 1 186 -32 119 -120 227
-213 258 -49 17 -130 20 -173 7z"/>
<path d="M4357 1770 c-25 -66 -42 -122 -38 -124 22 -13 394 -147 397 -143 3 3
25 56 49 118 39 103 42 115 27 127 -21 16 -24 12 -62 -88 -17 -47 -35 -88 -38
-92 -10 -10 -132 42 -132 56 0 7 11 41 25 76 30 77 31 86 6 93 -16 4 -23 -7
-46 -72 -15 -42 -30 -79 -34 -83 -4 -5 -37 4 -73 18 l-66 27 25 66 c47 124 47
122 32 132 -8 5 -17 9 -20 9 -4 0 -27 -54 -52 -120z"/>
<path d="M395 1793 c-110 -36 -201 -66 -202 -67 -2 -1 16 -57 38 -124 33 -99
44 -122 60 -122 25 0 24 11 -11 115 -17 49 -30 90 -30 91 0 4 124 44 136 44 6
0 22 -36 35 -80 17 -61 27 -80 40 -80 29 0 30 14 3 94 -15 43 -22 81 -18 85
11 10 103 41 120 41 8 0 26 -40 43 -92 16 -51 33 -94 38 -95 4 -1 14 1 22 6
11 7 7 30 -24 122 -21 63 -40 117 -44 120 -3 3 -96 -23 -206 -58z"/>
<path d="M676 1587 c-17 -13 -17 -16 9 -67 33 -65 46 -52 -155 -157 -80 -42
-147 -77 -148 -79 -8 -6 10 -44 21 -44 7 0 83 38 171 85 87 47 161 85 165 85
4 0 19 -25 34 -55 28 -58 37 -64 56 -41 9 11 -3 42 -59 148 -40 73 -73 134
-74 135 -1 2 -11 -3 -20 -10z"/>
<path d="M4268 1517 c-28 -22 -118 -162 -118 -182 0 -5 82 -58 183 -116 160
-93 184 -105 195 -91 6 9 12 19 12 24 0 4 -34 27 -75 50 -41 24 -75 47 -75 52
0 5 9 24 21 42 l21 34 105 0 c89 0 108 3 119 18 7 9 14 20 14 25 0 4 -47 7
-105 7 l-105 0 0 39 c0 92 -123 156 -192 98z m120 -59 c12 -12 22 -33 22 -46
0 -23 -55 -132 -67 -132 -2 0 -34 16 -69 36 l-65 36 27 47 c52 92 97 110 152
59z"/>
<path d="M710 1164 c-85 -63 -161 -121 -168 -128 -10 -10 2 -32 63 -114 41
-56 79 -102 84 -102 5 0 13 6 19 13 8 9 -5 33 -49 91 -32 44 -59 82 -59 86 0
7 94 78 109 82 5 2 32 -27 60 -65 46 -60 54 -66 72 -56 13 7 17 14 11 22 -5 7
-29 40 -55 73 l-46 62 55 41 c30 22 58 41 63 41 4 0 34 -36 65 -80 51 -70 60
-78 77 -69 11 6 17 15 12 22 -20 33 -146 197 -152 197 -3 -1 -76 -53 -161
-116z"/>
<path d="M4090 1244 c-12 -13 -4 -24 56 -77 155 -138 184 -171 184 -212 0 -53
-61 -115 -113 -115 -39 0 -45 4 -201 144 -83 76 -89 79 -102 61 -8 -10 -14
-22 -14 -25 0 -7 182 -168 234 -208 40 -30 111 -30 157 1 79 53 111 145 76
213 -15 30 -238 234 -255 234 -5 0 -15 -7 -22 -16z"/>
<path d="M925 885 c-147 -154 -148 -156 -129 -176 l19 -21 62 68 62 69 32 -32
33 -32 -22 -103 c-22 -102 -22 -102 -2 -122 10 -11 21 -18 23 -15 2 2 13 49
24 104 15 76 23 99 34 96 68 -18 95 -13 138 31 66 67 49 132 -59 228 l-68 60
-147 -155z m214 31 c28 -30 51 -61 51 -68 0 -26 -40 -78 -64 -84 -36 -9 -57 1
-105 50 l-44 44 49 56 c27 31 52 56 55 56 3 0 29 -24 58 -54z"/>
<path d="M3805 931 c-126 -57 -161 -159 -79 -230 43 -39 78 -40 168 -6 37 14
73 25 82 25 22 0 64 -46 64 -69 0 -42 -76 -105 -164 -135 -18 -6 -18 -8 -3
-23 22 -22 78 -6 139 41 84 64 98 144 37 206 -39 38 -82 39 -173 5 -37 -14
-73 -25 -82 -25 -22 0 -64 49 -64 75 0 30 68 91 119 106 39 12 40 13 25 31
-21 22 -19 22 -69 -1z"/>
<path d="M1225 628 c-109 -169 -116 -182 -99 -195 10 -7 20 -13 23 -13 3 0 46
63 95 140 49 77 91 140 94 140 3 0 3 -90 0 -201 l-6 -200 25 -16 c16 -11 27
-13 31 -6 161 245 222 342 222 351 0 6 -8 16 -19 21 -17 9 -29 -6 -107 -129
l-89 -139 -3 198 c-2 198 -3 199 -26 215 l-25 16 -116 -182z"/>
<path d="M3455 698 c-11 -6 -21 -12 -23 -14 -6 -4 61 -438 68 -447 4 -4 14 -5
24 -1 15 6 17 16 11 78 l-7 71 73 40 c41 22 76 41 80 43 3 1 27 -16 52 -39 38
-33 52 -40 73 -35 14 4 24 11 22 16 -3 10 -340 300 -348 300 -3 0 -14 -6 -25
-12z m119 -132 l70 -63 -47 -28 c-75 -43 -80 -41 -94 45 -14 91 -15 110 -5
110 4 0 38 -29 76 -64z"/>
<path d="M3155 552 c-60 -20 -111 -37 -113 -38 -9 -5 132 -415 142 -411 6 2
62 21 124 41 74 25 112 43 112 52 0 26 -23 25 -115 -5 -49 -16 -93 -27 -96
-23 -4 4 -16 35 -27 70 -16 46 -18 64 -9 67 7 3 43 15 81 28 71 24 82 32 68
55 -6 9 -25 6 -82 -13 -40 -14 -79 -25 -85 -25 -7 0 -21 31 -32 68 l-20 69 99
32 c77 25 98 36 94 48 -3 8 -6 17 -6 19 0 8 -28 1 -135 -34z"/>
<path d="M1698 463 c-51 -59 -119 -136 -150 -172 -56 -65 -57 -66 -35 -78 20
-11 26 -8 68 40 l47 52 53 -19 c127 -46 119 -37 119 -116 0 -39 4 -70 9 -70 5
0 16 -3 25 -6 14 -5 16 19 16 229 l0 235 -22 6 c-13 3 -26 6 -30 6 -4 0 -49
-48 -100 -107z m102 -68 l0 -104 -57 21 c-32 12 -62 25 -67 29 -7 6 110 159
121 159 2 0 3 -47 3 -105z"/>
<path d="M2040 488 c0 -2 -20 -98 -44 -213 l-43 -211 110 -22 c110 -23 136
-21 124 11 -3 8 -35 19 -79 27 -83 14 -99 19 -94 29 6 10 77 363 74 366 -5 5
-48 16 -48 13z"/>
<path d="M2768 455 c-5 -5 61 -416 68 -424 2 -2 53 4 114 14 104 17 110 19
110 41 0 27 0 27 -100 10 -42 -8 -77 -10 -81 -5 -3 5 -18 90 -34 189 -27 168
-30 180 -50 180 -12 0 -24 -2 -27 -5z"/>
<path d="M2430 221 l0 -221 25 0 c25 0 25 1 25 89 l0 88 78 5 c42 3 89 11 104
18 71 33 77 172 10 217 -21 13 -53 18 -134 21 l-108 4 0 -221z m216 148 c12
-13 19 -35 19 -61 0 -59 -28 -78 -116 -78 l-69 0 0 80 0 80 73 0 c62 0 77 -3
93 -21z"/>
</g>
</svg>
